<?xml version="1.0" encoding="utf-8"?>
<svg version="1.1" xmlns:xlink="http://www.w3.org/1999/xlink" width="183px" height="121px" xmlns="http://www.w3.org/2000/svg">
  <g transform="matrix(1 0 0 1 -206 -103 )">
    <path d="M 143.35 96  L 39.65 96  C 35.45625 96.8  31.8661458333333 95.3190104166667  28.8796875 92.35703125  C 25.8932291666667 89.3950520833333  24.4 85.834375  25 81.675  L 25 15.125  C 24.4 10.965625  25.8932291666667 7.40494791666666  28.8796875 4.44296875  C 31.8661458333333 1.48098958333332  35.45625 0  39.65 0  L 143.35 0  C 147.54375 0  151.133854166667 1.48098958333332  154.1203125 4.44296875  C 157.106770833333 7.40494791666666  158.6 10.965625  158 15.125  L 158 81.675  C 158.6 85.834375  157.106770833333 89.3950520833333  154.1203125 92.35703125  C 151.133854166667 95.3190104166667  147.54375 96.8  143.35 96  Z M 37.50546875 12.998046875  C 36.9018229166667 13.5967447916667  36.6 14.3057291666667  37 15.125  L 37 81.675  C 36.6 82.4942708333333  36.9018229166667 83.2032552083333  37.50546875 83.801953125  C 38.1091145833333 84.4006510416667  38.8239583333333 84.7  39.65 84  L 143.35 84  C 144.176041666667 84.7  144.890885416667 84.4006510416667  145.49453125 83.801953125  C 146.098177083333 83.2032552083333  146.4 82.4942708333333  146 81.675  L 146 15.125  C 146.4 14.3057291666667  146.098177083333 13.5967447916667  145.49453125 12.998046875  C 144.890885416667 12.3993489583333  144.176041666667 12.1  143.35 12  L 39.65 12  C 38.8239583333333 12.1  38.1091145833333 12.3993489583333  37.50546875 12.998046875  Z M 15.25 102  L 167.75 102  L 183 102.85  L 183 111.925  C 183 114.445833333333  181.506770833333 116.588541666667  178.5203125 118.353125  C 175.533854166667 120.117708333333  171.94375 121  167.75 121  L 15.25 121  C 11.05625 121  7.46614583333333 120.117708333333  4.4796875 118.353125  C 1.49322916666667 116.588541666667  0 114.445833333333  0 111.925  L 0 102.85  L 15.25 102  Z M 83.875 112  L 99.125 112  C 100.141666666667 111.925  100.65 111.420833333333  100.65 110.4125  C 100.65 109.404166666667  100.141666666667 108.9  99.125 109  L 83.875 109  C 82.8583333333333 108.9  82.35 109.404166666667  82.35 110.4125  C 82.35 111.420833333333  82.8583333333333 111.925  83.875 112  Z " fill-rule="nonzero" fill="#000000" stroke="none" transform="matrix(1 0 0 1 206 103 )" />
  </g>
</svg>